# xmcd
# 
# Track frame offsets:
#     150
#     10502
#     20460
#     30717
#     41640
#     53165
#     61965
#     70885
#     81117
#     91200
#     104885
#     114570
#     126325
#     139390
#     149635
# 
# Disc length: 2128
# 
# Revision: 10
# Processed by: cddbd v1.5.2PL0 Copyright (c) Steve Scherf et al.
# Submitted via: fre:ac v1.0.31
# 
DISCID=d8084e0f
DTITLE=Various Artist - Classic Country - TL 626-07 - Golden '50s - CD 1
DYEAR=1999
DGENRE=Country
TTITLE0=Carl Perkins - Blue suede shoes
TTITLE1=Johnny Cash And The Tennessee Two - Ballad of a teenage queen
TTITLE2=Jimmie Rodgers - Oh, oh, I'm falling in love again
TTITLE3=Ferlin Husky And His Hush Puppies - Gone
TTITLE4=Marvin Rainwater - Gonna find me a bluebird
TTITLE5=Don Gibson - Blue, blue day
TTITLE6=Faron Young - Alone with you
TTITLE7=George Jones - Why baby why
TTITLE8=Johnny Horton - Honky-tonk man
TTITLE9=Ray Price - City lights
TTITLE10=Webb Pierce - In the jailhouse now
TTITLE11=Marty Robbins - That's all right
TTITLE12=Bobby Helms - Fraulein
TTITLE13=Johnny Cash And The Tennessee Two - The ways of a woman in love
TTITLE14=Everly Brothers - Claudette
EXTD=YEAR: 1999
EXTT0=
EXTT1=
EXTT2=
EXTT3=
EXTT4=
EXTT5=
EXTT6=
EXTT7=
EXTT8=
EXTT9=
EXTT10=
EXTT11=
EXTT12=
EXTT13=
EXTT14=
PLAYORDER=
